<?xml version="1.0" encoding="utf-8"?>
<!-- Generated by IcoMoon.io -->
<!DOCTYPE svg PUBLIC "-//W3C//DTD SVG 1.1//EN" "http://www.w3.org/Graphics/SVG/1.1/DTD/svg11.dtd">
<svg version="1.1" xmlns="http://www.w3.org/2000/svg" xmlns:xlink="http://www.w3.org/1999/xlink" width="720" height="720" viewBox="0 0 720 720">
<path d="M0 45v630h720v-630h-720zM270 450v-135h180v135h-180zM450 495v135h-180v-135h180zM450 135v135h-180v-135h180zM225 135v135h-180v-135h180zM45 315h180v135h-180v-135zM495 315h180v135h-180v-135zM495 270v-135h180v135h-180zM45 495h180v135h-180v-135zM495 630v-135h180v135h-180z"></path>
</svg>
